<?xml version="1.0" standalone="no"?>
<!DOCTYPE svg PUBLIC "-//W3C//DTD SVG 20010904//EN"
 "http://www.w3.org/TR/2001/REC-SVG-20010904/DTD/svg10.dtd">
<svg version="1.0" xmlns="http://www.w3.org/2000/svg"
 width="1224.000000pt" height="1224.000000pt" viewBox="0 0 1224.000000 1224.000000"
 preserveAspectRatio="xMidYMid meet">
<metadata>
Created by potrace 1.14, written by Peter Selinger 2001-2017
</metadata>
<g transform="translate(0.000000,1224.000000) scale(0.100000,-0.100000)"
fill="#000000" stroke="none">
<path d="M6047 10284 c-1 -1 -81 -5 -177 -8 -96 -4 -191 -9 -210 -11 -19 -2
-71 -7 -115 -11 -193 -17 -327 -36 -622 -88 -72 -13 -304 -68 -388 -91 -49
-14 -98 -28 -107 -30 -48 -11 -270 -83 -401 -131 -351 -127 -733 -309 -1057
-504 -216 -130 -568 -377 -715 -501 -21 -19 -87 -74 -145 -124 -97 -83 -443
-422 -535 -525 -665 -744 -1152 -1649 -1381 -2570 -11 -45 -26 -107 -29 -120
-8 -31 -46 -206 -50 -228 -11 -58 -25 -141 -31 -176 -3 -21 -8 -48 -10 -60 -7
-36 -43 -337 -48 -406 -16 -200 -20 -320 -20 -545 1 -226 8 -441 19 -520 2
-16 7 -61 10 -100 4 -38 8 -81 10 -95 2 -14 6 -47 10 -75 3 -27 10 -77 15
-110 5 -33 12 -78 15 -100 4 -22 8 -47 10 -55 3 -8 7 -33 10 -55 4 -22 10 -56
15 -75 5 -19 11 -51 14 -70 7 -40 54 -237 85 -355 53 -200 190 -595 257 -742
13 -28 24 -54 24 -57 0 -3 16 -40 36 -83 19 -43 35 -78 34 -78 -8 0 199 -388
295 -553 167 -287 426 -638 706 -959 l54 -62 90 -1 c50 0 2070 -1 4489 -2
l4399 0 46 48 c64 68 234 271 317 379 231 299 437 625 592 935 42 85 79 157
82 160 12 11 153 343 196 460 20 52 40 106 45 119 25 61 94 280 133 425 39
145 48 177 62 239 2 9 6 25 8 35 8 32 45 217 50 247 3 17 10 55 16 85 6 30 13
74 16 96 2 23 6 50 8 61 2 10 7 46 11 78 4 33 9 71 11 85 2 14 6 57 10 95 3
39 7 86 9 105 23 210 23 901 0 1015 -2 11 -7 54 -10 95 -3 41 -8 89 -10 105
-2 17 -7 53 -10 80 -3 28 -8 59 -10 70 -2 11 -7 40 -10 65 -5 43 -8 64 -20
128 -3 15 -8 43 -11 62 -3 19 -7 42 -9 50 -2 8 -7 30 -10 48 -3 19 -14 71 -25
117 -11 46 -22 96 -25 112 -5 28 -53 204 -81 298 -16 54 -18 62 -26 85 -3 8
-18 56 -33 105 -16 50 -34 104 -41 120 -7 17 -28 73 -47 125 -119 322 -335
759 -519 1050 -322 507 -672 926 -1103 1319 -399 364 -917 712 -1420 956 -168
82 -424 195 -441 195 -3 0 -20 6 -37 14 -91 40 -351 127 -542 181 -115 32
-437 109 -500 118 -16 3 -84 15 -150 26 -66 12 -138 23 -160 26 -51 6 -133 16
-165 20 -14 2 -63 6 -110 10 -47 4 -98 9 -115 11 -48 6 -523 22 -528 18z
m-3025 -3099 c583 -101 981 -659 882 -1236 -78 -451 -419 -799 -867 -884 -111
-21 -300 -19 -412 4 -207 43 -377 134 -531 286 -112 110 -166 184 -224 308
-219 460 -84 1012 323 1318 237 178 544 254 829 204z m6640 -18 c374 -98 664
-383 774 -762 32 -112 44 -330 24 -452 -73 -455 -438 -820 -892 -893 -110 -18
-341 -8 -439 19 -381 104 -675 398 -776 776 -23 88 -26 119 -27 265 0 137 3
179 21 250 49 194 139 355 278 498 163 170 355 273 588 318 113 21 328 12 449
-19z m-5052 -3954 c0 -73 20 -220 41 -302 115 -449 519 -739 1169 -837 160
-25 493 -25 650 -1 512 79 843 284 1000 619 64 137 110 353 110 518 l0 50 414
0 414 0 -4 -82 c-19 -348 -78 -603 -198 -854 -279 -582 -847 -953 -1641 -1071
-185 -27 -679 -25 -865 4 -327 52 -584 129 -835 252 -343 169 -578 369 -770
656 -190 283 -283 588 -309 1013 l-5 82 414 0 415 0 0 -47z"/>
</g>
</svg>
